<svg id="Ebene_1" data-name="Ebene 1" xmlns="http://www.w3.org/2000/svg" viewBox="0 0 316 49.94"><defs><style>.cls-1{fill:#fff;}</style></defs><title>GW-logo</title><path class="cls-1" d="M88.35,39.77l-.56,1.34H85.46l-2.84,6.78H80.47l2.84-6.78H81l.56-1.34Z" transform="translate(0 -0.1)"/><path class="cls-1" d="M87.57,41.77h2l-.34.82h0a3.39,3.39,0,0,1,2.26-1l.36,0-.63,1.5-.63,0a2.08,2.08,0,0,0-2,1.1l-1.54,3.67H85Z" transform="translate(0 -0.1)"/><path class="cls-1" d="M92,43.65l.06-.15c.59-1.41,2.06-1.89,3.61-1.89,2.45,0,2.59.77,2.12,1.88l-1.35,3.22a1.94,1.94,0,0,0-.24,1.18h-2a1.73,1.73,0,0,1,0-.64h0a3.21,3.21,0,0,1-2.38.8c-1.43,0-1.55-.93-1.21-1.75.48-1.15,1.29-1.61,2.83-1.91l1.26-.24c.66-.12.95-.31,1.12-.72s0-.75-.64-.75a1.33,1.33,0,0,0-1.29.8l-.07.17Zm3.26,1.18a4.34,4.34,0,0,1-1,.31c-.89.14-1.35.44-1.58,1s-.13.85.42.85A1.83,1.83,0,0,0,94.79,46Z" transform="translate(0 -0.1)"/><path class="cls-1" d="M100.31,41.77h2l-.3.72h0a3.61,3.61,0,0,1,2.41-.88c1.28,0,1.82.53,1.32,1.74l-1.9,4.54h-2.06l1.77-4.22c.26-.61.09-.85-.52-.85a1.53,1.53,0,0,0-1.51,1l-1.7,4.06H97.75Z" transform="translate(0 -0.1)"/><path class="cls-1" d="M107.85,45.89l-.09.2c-.22.53,0,.89.7.89a1.35,1.35,0,0,0,1.35-.73c.17-.4-.1-.58-.46-.69l-1.28-.4c-1-.31-1.36-.84-1-1.71s1.61-1.84,3.73-1.84c1.87,0,2.48.64,2,1.74l-.1.25h-1.85c.26-.61.15-.92-.52-.92a1.32,1.32,0,0,0-1.25.66c-.12.3,0,.55.6.72l1.11.32c1.16.33,1.43.83,1,1.75-.54,1.28-2.06,1.92-3.79,1.92-2.31,0-2.63-.77-2.14-1.94l.09-.22Z" transform="translate(0 -0.1)"/><path class="cls-1" d="M115,41.77h2l-.27.65h0a3.19,3.19,0,0,1,2.16-.81c1.69,0,2.07.94,1.11,3.22S117.87,48,116.18,48c-.78,0-1.2-.24-1.43-.73h0l-1.08,2.57h-2.06Zm1,5.07c.9,0,1.36-.68,1.92-2s.66-2-.23-2-1.38.68-1.93,2S115.11,46.84,116,46.84Z" transform="translate(0 -0.1)"/><path class="cls-1" d="M125.71,41.61c2.49,0,2.71,1.09,1.81,3.22S125.37,48,123,48s-2.71-1.09-1.82-3.22S123.35,41.61,125.71,41.61ZM123.46,47c.84,0,1.37-.63,2-2.15s.63-2.15-.2-2.15c-1,0-1.48.9-2,2.15S122.45,47,123.46,47Z" transform="translate(0 -0.1)"/><path class="cls-1" d="M130.21,41.77h2l-.34.82h0a3.39,3.39,0,0,1,2.26-1l.36,0-.63,1.5-.63,0a2.08,2.08,0,0,0-2,1.1l-1.54,3.67h-2.06Z" transform="translate(0 -0.1)"/><path class="cls-1" d="M136.66,40h2.06L138,41.77h1.19l-.45,1.07h-1.19l-1.39,3.31c-.2.48-.15.67.45.67l.47,0-.46,1.09c-.46,0-.89.07-1.37.07-1.61,0-1.75-.38-1.23-1.61l1.47-3.5h-1l.45-1.07h1Z" transform="translate(0 -0.1)"/><path class="cls-1" d="M145.93,47.17h0a3.61,3.61,0,0,1-2.41.88c-1.28,0-1.82-.53-1.31-1.74l1.9-4.54h2.06L144.36,46c-.26.61-.09.85.52.85a1.53,1.53,0,0,0,1.51-1l1.7-4.06h2.06l-2.56,6.12h-2Z" transform="translate(0 -0.1)"/><path class="cls-1" d="M151.83,41.77h2l-.3.72h0a3.61,3.61,0,0,1,2.41-.88c1.28,0,1.82.53,1.32,1.74l-1.9,4.54H153.3l1.77-4.22c.26-.61.09-.85-.52-.85a1.53,1.53,0,0,0-1.51,1l-1.7,4.06h-2.06Z" transform="translate(0 -0.1)"/><path class="cls-1" d="M161.42,47.24h0a3.19,3.19,0,0,1-2.16.81c-1.69,0-2.07-.94-1.11-3.22s2.12-3.22,3.81-3.22c.78,0,1.2.24,1.43.73h0l1.08-2.57h2.06l-3.4,8.12h-2Zm-1-.4c.91,0,1.38-.68,1.93-2s.66-2-.25-2-1.36.68-1.92,2S159.51,46.84,160.41,46.84Z" transform="translate(0 -0.1)"/><path class="cls-1" d="M168.73,47.89l3.4-8.12h2.15l-2.84,6.78h3.81l-.56,1.34Z" transform="translate(0 -0.1)"/><path class="cls-1" d="M181.4,41.61c2.49,0,2.71,1.09,1.82,3.22S181.06,48,178.7,48,176,47,176.89,44.83,179,41.61,181.4,41.61ZM179.15,47c.84,0,1.37-.63,2-2.15s.63-2.15-.2-2.15c-1,0-1.48.9-2,2.15S178.13,47,179.15,47Z" transform="translate(0 -0.1)"/><path class="cls-1" d="M191.91,41.77l-2.43,5.81c-.68,1.61-1.95,2.4-4.35,2.4-1.75,0-2.48-.59-2-1.64h2a.35.35,0,0,0,.12.47,1.09,1.09,0,0,0,.62.17,1.65,1.65,0,0,0,1.6-1.1l.34-.81h0a3.6,3.6,0,0,1-2,.75c-1.64,0-2.1-.85-1.17-3.09.6-1.43,1.59-3.12,3.83-3.12a1.18,1.18,0,0,1,1.3.84h0l.29-.68Zm-5.12,4.84c.87,0,1.42-.72,1.85-1.75.62-1.49.6-2-.22-2s-1.31.56-2,2.21C186.08,45.86,185.93,46.62,186.79,46.62Z" transform="translate(0 -0.1)"/><path class="cls-1" d="M193.73,41.77h2.06l-2.56,6.12h-2.06Zm.88-2.09h2.06L196.1,41H194Z" transform="translate(0 -0.1)"/><path class="cls-1" d="M197.32,45.89l-.09.2c-.22.53,0,.89.7.89a1.35,1.35,0,0,0,1.35-.73c.17-.4-.1-.58-.45-.69l-1.28-.4c-1-.31-1.36-.84-1-1.71s1.61-1.84,3.73-1.84c1.87,0,2.48.64,2,1.74l-.1.25h-1.85c.26-.61.15-.92-.52-.92a1.32,1.32,0,0,0-1.25.66c-.12.3,0,.55.6.72l1.11.32c1.16.33,1.43.83,1,1.75-.54,1.28-2.06,1.92-3.79,1.92-2.31,0-2.63-.77-2.14-1.94l.09-.22Z" transform="translate(0 -0.1)"/><path class="cls-1" d="M205.64,40h2.06L207,41.77h1.19l-.45,1.07h-1.19l-1.39,3.31c-.2.48-.15.67.45.67l.47,0-.46,1.09c-.46,0-.89.07-1.37.07-1.61,0-1.75-.38-1.23-1.61l1.47-3.5h-1l.45-1.07h1Z" transform="translate(0 -0.1)"/><path class="cls-1" d="M209.25,41.77h2.06l-2.56,6.12h-2.06Zm.88-2.09h2.06L211.62,41h-2.06Z" transform="translate(0 -0.1)"/><path class="cls-1" d="M216,39.77l-1.8,4.29h0l3-2.28h2.27l-3.32,2.41,1.1,3.71h-2.27l-.66-2.51-1,.73-.75,1.78h-2.06l3.4-8.12Z" transform="translate(0 -0.1)"/><path class="cls-1" d="M49.27,26.41l.88-7h-8l-7,7,.9-7h-14c6.69-7.61,18.6-13.11,30-13.07,7.78,0,14.32,2.5,17.21,6.89a9.1,9.1,0,0,1,1.19,2.68h7C76.1,6.5,66.61.15,52.56.1,37,0,21.16,8.28,14,19.37H2.58L0,25.4H11.05C6.57,39.15,17.2,50,35.16,50S71.71,39,76.51,25.18a21.23,21.23,0,0,0,1.19-5.81H56.06Zm19.9-1c-5,10.25-19.69,18.48-33.63,18.43-7.78,0-14.22-2.6-17.11-7C16.6,34,16.36,30.69,17.61,27q.27-.79.61-1.58h11l-1.06,8.55h7.71l7.34-7.49-.93,7.49h7.62l8.35-8.55Z" transform="translate(0 -0.1)"/><path class="cls-1" d="M98.27,22.91h7.57L101.17,34H96.68l.57-1.71h-.07c-1.58,1.66-4.12,2.09-6.36,2.09-6.73,0-5.8-3.66-3.12-10.07s5.86-10.07,13.7-10.07c4.7,0,7.29,1.82,5.32,6.51h-6.41a5.67,5.67,0,0,0,.59-2.25c0-.54-.4-.84-1.18-.84-2.17,0-3,1.41-5.17,6.65S92,30.94,94,30.94c1.39,0,3.18-.68,4.89-4.61H96.84Z" transform="translate(0 -0.1)"/><path class="cls-1" d="M112.27,27.46l-.81,1.93c-.66,1.57,0,2,.92,2,1.14,0,2-.54,2.89-2.55H121c-1.56,3.56-4.56,5.54-9.87,5.54-6.2,0-7.31-2.12-5-7.71s5.66-7.74,11.44-7.74c5.13,0,7,1.74,4.77,7.06l-.63,1.49Zm4.91-3.31c.65-1.55.52-2.25-.84-2.25s-2,.71-2.69,2.25l-.27.65h3.53Z" transform="translate(0 -0.1)"/><path class="cls-1" d="M129.17,14.6h6.41l-2.66,6.35H133a6.16,6.16,0,0,1,4.88-2c3.7,0,5.19,1.74,2.81,7.41-2.27,5.43-4.83,8-9.14,8-2.28,0-3.28-.76-3.38-2.39h-.07l-.84,2h-6.2Zm1.44,16.12c1.5,0,2.2-.92,3.52-4.07s1.4-4.1-.1-4.1-2.17.92-3.5,4.1S129.15,30.72,130.61,30.72Z" transform="translate(0 -0.1)"/><path class="cls-1" d="M145.54,19.29h6.2l-1,2.33h.07a7.28,7.28,0,0,1,5.45-2.71h1l-1.91,4.56a9.91,9.91,0,0,0-1.56-.11c-2.28,0-3.88.68-4.69,2.61l-3.36,8h-6.41Z" transform="translate(0 -0.1)"/><path class="cls-1" d="M162.84,14.22h4.77l-1.33,3.18h-4.77Zm6.48,0h4.77l-1.33,3.18H168Zm-11,5.08h6.41L160.72,29c-.51,1.22-.3,1.74.84,1.74a2.29,2.29,0,0,0,2.3-1.74l4.06-9.69h6.41L168.17,34H162l.75-1.79h-.07a7.65,7.65,0,0,1-5.58,2.17c-2.82,0-4.67-.84-3.35-4Z" transform="translate(0 -0.1)"/><path class="cls-1" d="M188.4,14.6h6.41L186.69,34h-6.2l.84-2h-.07a6.7,6.7,0,0,1-5.38,2.39c-4.31,0-4.68-2.61-2.4-8s5.46-7.41,9-7.41c1.82,0,3.16.54,3.17,2h.07Zm-8.54,16.12c1.46,0,2.17-.92,3.49-4.07s1.4-4.1-.06-4.1-2.2.92-3.53,4.1S178.37,30.72,179.86,30.72Z" transform="translate(0 -0.1)"/><path class="cls-1" d="M198,27.46l-.81,1.93c-.66,1.57,0,2,.92,2,1.14,0,2-.54,2.89-2.55h5.77c-1.56,3.56-4.57,5.54-9.87,5.54-6.2,0-7.31-2.12-5-7.71s5.66-7.74,11.44-7.74c5.13,0,7,1.74,4.77,7.06l-.62,1.49ZM203,24.15c.65-1.55.52-2.25-.84-2.25s-2,.71-2.69,2.25l-.27.65h3.53Z" transform="translate(0 -0.1)"/><path class="cls-1" d="M212.68,19.29h6.2l-1,2.33H218a7.28,7.28,0,0,1,5.45-2.71h1l-1.91,4.56a9.91,9.91,0,0,0-1.56-.11c-2.28,0-3.88.68-4.69,2.61l-3.35,8h-6.41Z" transform="translate(0 -0.1)"/><path class="cls-1" d="M245.1,14.6h6l-2.35,11.74h.07l6.73-11.74H262L249.49,34h-7.27l2.73-11.69h-.07L237.73,34h-7.27l3.77-19.38h6.41l-3,11.74h.07Z" transform="translate(0 -0.1)"/><path class="cls-1" d="M262.44,27.46l-.81,1.93c-.66,1.57,0,2,.92,2,1.14,0,2-.54,2.89-2.55h5.77c-1.56,3.56-4.56,5.54-9.87,5.54-6.2,0-7.31-2.12-5-7.71s5.66-7.74,11.44-7.74c5.13,0,7,1.74,4.77,7.06L272,27.46Zm4.91-3.31c.65-1.55.52-2.25-.84-2.25s-2,.71-2.69,2.25l-.27.65h3.53Z" transform="translate(0 -0.1)"/><path class="cls-1" d="M277.37,19.29h6.41L277.63,34h-6.41Zm2-4.7h6.41l-1.18,2.8h-6.41Z" transform="translate(0 -0.1)"/><path class="cls-1" d="M287.27,29.42a1.79,1.79,0,0,0-.14,1.44,1.21,1.21,0,0,0,1.14.52,2.56,2.56,0,0,0,2.38-1.25c1.09-2.61-8.86-1.06-6.52-6.62,1.08-2.58,4.38-4.59,9.58-4.59,4.81,0,6.58,1.55,5.3,4.61h-5.56c.52-1.25,0-1.63-1-1.63A2.22,2.22,0,0,0,290.29,23c-1,2.41,9,.79,6.62,6.4-1.2,2.85-4.94,4.91-9.79,4.91-5.38,0-6.83-1.74-5.48-4.94Z" transform="translate(0 -0.1)"/><path class="cls-1" d="M303.86,29.42a1.79,1.79,0,0,0-.14,1.44,1.21,1.21,0,0,0,1.14.52,2.56,2.56,0,0,0,2.38-1.25c1.09-2.61-8.85-1.06-6.52-6.62,1.08-2.58,4.38-4.59,9.58-4.59,4.81,0,6.58,1.55,5.3,4.61H310c.52-1.25,0-1.63-1-1.63A2.22,2.22,0,0,0,306.89,23c-1,2.41,9,.79,6.61,6.4-1.19,2.85-4.94,4.91-9.79,4.91-5.38,0-6.83-1.74-5.48-4.94Z" transform="translate(0 -0.1)"/></svg>